<svg preserveAspectRatio="none" overflow="visible" style="display: block;" width="20" height="20" viewBox="0 0 20 20" fill="none" xmlns="http://www.w3.org/2000/svg">
<g id="dices" clip-path="url(#clip0_0_18)">
<path id="Vector" d="M14.9329 11.6673L17.8497 8.75057C18.1589 8.40764 18.33 7.96228 18.33 7.50053C18.33 7.03878 18.1589 6.59342 17.8497 6.25049L13.6829 2.15034C13.34 1.84113 12.8946 1.67 12.4329 1.67C11.9711 1.67 11.5258 1.84113 11.1829 2.15034L8.3328 5.00044M4.9994 15.0005H5.00774M8.3328 11.6671H8.34114M12.4996 5.0002H12.5079M14.9996 7.50028H15.0079M3.3327 8.33365H9.9995C10.92 8.33365 11.6662 9.07986 11.6662 10.0004V16.6673C11.6662 17.5878 10.92 18.334 9.9995 18.334H3.3327C2.41221 18.334 1.666 17.5878 1.666 16.6673V10.0004C1.666 9.07986 2.41221 8.33365 3.3327 8.33365Z" stroke="#A5A39F" stroke-width="1.5" stroke-linecap="round"/>
</g>
<defs>
<clipPath id="clip0_0_18">
<rect width="20" height="20" fill="white"/>
</clipPath>
</defs>
</svg>
